<svg width="85" height="26" viewBox="0 0 85 26" fill="none" xmlns="http://www.w3.org/2000/svg">
<path d="M15 23V19C15.1391 17.7473 14.7799 16.4901 14 15.5C17 15.5 20 13.5 20 10C20.08 8.75 19.73 7.52 19 6.5C19.28 5.35 19.28 4.15 19 3C19 3 18 3 16 4.5C13.36 4 10.64 4 8 4.5C6 3 5 3 5 3C4.7 4.15 4.7 5.35 5 6.5C4.27187 7.51588 3.91847 8.75279 4 10C4 13.5 7 15.5 10 15.5C9.61 15.99 9.32 16.55 9.15 17.15C8.98 17.75 8.93 18.38 9 19M9 19V23M9 19C4.49 21 4 17 2 17" stroke="#F5EEED" stroke-width="1.5" stroke-linecap="round" stroke-linejoin="round"/>
<path d="M37.832 19.24C37.0587 19.24 36.3467 19.1067 35.696 18.84C35.0453 18.568 34.48 18.1733 34 17.656C33.52 17.1387 33.1467 16.5093 32.88 15.768C32.6133 15.0267 32.48 14.184 32.48 13.24C32.48 11.9973 32.7067 10.9307 33.16 10.04C33.6133 9.144 34.2427 8.456 35.048 7.976C35.8533 7.49067 36.7813 7.248 37.832 7.248C39.1867 7.248 40.2667 7.56267 41.072 8.192C41.8827 8.82133 42.4347 9.69067 42.728 10.8L41.032 11.104C40.7973 10.416 40.4187 9.86667 39.896 9.456C39.3733 9.04533 38.7173 8.83733 37.928 8.832C37.112 8.82667 36.432 9.008 35.888 9.376C35.3493 9.744 34.944 10.2613 34.672 10.928C34.4 11.5893 34.2613 12.36 34.256 13.24C34.2507 14.12 34.384 14.8907 34.656 15.552C34.928 16.208 35.336 16.72 35.88 17.088C36.4293 17.456 37.112 17.6427 37.928 17.648C38.584 17.6587 39.1467 17.5387 39.616 17.288C40.0907 17.032 40.4667 16.6587 40.744 16.168C41.0213 15.6773 41.2 15.0747 41.28 14.36H39.04V13.016H43.056C43.0667 13.112 43.0747 13.24 43.08 13.4C43.0853 13.5547 43.088 13.6533 43.088 13.696C43.088 14.7627 42.8827 15.7147 42.472 16.552C42.0613 17.3893 41.464 18.048 40.68 18.528C39.896 19.0027 38.9467 19.24 37.832 19.24ZM44.9925 8.944V7.32H46.6645V8.944H44.9925ZM44.9925 19V10.36H46.6645V19H44.9925ZM54.1609 19C53.6169 19.1067 53.0835 19.152 52.5609 19.136C52.0382 19.12 51.5715 19.0187 51.1609 18.832C50.7502 18.6453 50.4409 18.352 50.2329 17.952C50.0462 17.5947 49.9449 17.232 49.9289 16.864C49.9182 16.4907 49.9129 16.0693 49.9129 15.6V7.96H51.5929V15.52C51.5929 15.8667 51.5955 16.168 51.6009 16.424C51.6115 16.68 51.6675 16.896 51.7689 17.072C51.9609 17.4027 52.2649 17.592 52.6809 17.64C53.1022 17.6827 53.5955 17.664 54.1609 17.584V19ZM48.2569 11.704V10.36H54.1609V11.704H48.2569ZM62.1965 19V14.752C62.1965 14.416 62.1672 14.072 62.1085 13.72C62.0552 13.3627 61.9485 13.032 61.7885 12.728C61.6338 12.424 61.4125 12.1787 61.1245 11.992C60.8418 11.8053 60.4712 11.712 60.0125 11.712C59.7138 11.712 59.4312 11.7627 59.1645 11.864C58.8978 11.96 58.6632 12.1173 58.4605 12.336C58.2632 12.5547 58.1058 12.8427 57.9885 13.2C57.8765 13.5573 57.8205 13.992 57.8205 14.504L56.7805 14.112C56.7805 13.328 56.9272 12.6373 57.2205 12.04C57.5138 11.4373 57.9352 10.968 58.4845 10.632C59.0338 10.296 59.6978 10.128 60.4765 10.128C61.0738 10.128 61.5752 10.224 61.9805 10.416C62.3858 10.608 62.7138 10.8613 62.9645 11.176C63.2205 11.4853 63.4152 11.824 63.5485 12.192C63.6818 12.56 63.7725 12.92 63.8205 13.272C63.8685 13.624 63.8925 13.9333 63.8925 14.2V19H62.1965ZM56.1245 19V7.48H57.6205V13.696H57.8205V19H56.1245ZM69.3822 19.232C68.7849 19.232 68.2836 19.136 67.8782 18.944C67.4729 18.752 67.1422 18.5013 66.8862 18.192C66.6356 17.8773 66.4436 17.536 66.3102 17.168C66.1769 16.8 66.0862 16.44 66.0382 16.088C65.9902 15.736 65.9662 15.4267 65.9662 15.16V10.36H67.6622V14.608C67.6622 14.944 67.6889 15.2907 67.7422 15.648C67.8009 16 67.9076 16.328 68.0622 16.632C68.2222 16.936 68.4436 17.1813 68.7262 17.368C69.0142 17.5547 69.3876 17.648 69.8462 17.648C70.1449 17.648 70.4276 17.6 70.6942 17.504C70.9609 17.4027 71.1929 17.2427 71.3902 17.024C71.5929 16.8053 71.7502 16.5173 71.8622 16.16C71.9796 15.8027 72.0382 15.368 72.0382 14.856L73.0782 15.248C73.0782 16.032 72.9316 16.7253 72.6382 17.328C72.3449 17.9253 71.9236 18.392 71.3742 18.728C70.8249 19.064 70.1609 19.232 69.3822 19.232ZM72.2382 19V16.504H72.0382V10.36H73.7262V19H72.2382ZM80.176 19.24C79.3493 19.24 78.656 19.04 78.096 18.64C77.536 18.2347 77.112 17.688 76.824 17C76.536 16.312 76.392 15.536 76.392 14.672C76.392 13.808 76.5333 13.032 76.816 12.344C77.104 11.656 77.5253 11.1147 78.08 10.72C78.64 10.32 79.328 10.12 80.144 10.12C80.9547 10.12 81.6533 10.32 82.24 10.72C82.832 11.1147 83.288 11.656 83.608 12.344C83.928 13.0267 84.088 13.8027 84.088 14.672C84.088 15.536 83.928 16.3147 83.608 17.008C83.2933 17.696 82.8427 18.24 82.256 18.64C81.6747 19.04 80.9813 19.24 80.176 19.24ZM76.112 19V7.48H77.792V12.784H77.6V19H76.112ZM79.944 17.728C80.4773 17.728 80.9173 17.592 81.264 17.32C81.616 17.048 81.8773 16.6827 82.048 16.224C82.224 15.76 82.312 15.2427 82.312 14.672C82.312 14.1067 82.224 13.5947 82.048 13.136C81.8773 12.6773 81.6133 12.312 81.256 12.04C80.8987 11.768 80.4427 11.632 79.888 11.632C79.3653 11.632 78.9333 11.76 78.592 12.016C78.256 12.272 78.0053 12.6293 77.84 13.088C77.68 13.5467 77.6 14.0747 77.6 14.672C77.6 15.2693 77.68 15.7973 77.84 16.256C78 16.7147 78.2533 17.0747 78.6 17.336C78.9467 17.5973 79.3947 17.728 79.944 17.728Z" fill="#F5EEED"/>
</svg>
